<?xml version="1.0" encoding="utf-8"?>
<!-- Generator: Adobe Illustrator 17.0.0, SVG Export Plug-In . SVG Version: 6.00 Build 0)  -->
<!DOCTYPE svg PUBLIC "-//W3C//DTD SVG 1.1//EN" "http://www.w3.org/Graphics/SVG/1.1/DTD/svg11.dtd">
<svg version="1.1" id="Layer_3" xmlns="http://www.w3.org/2000/svg" xmlns:xlink="http://www.w3.org/1999/xlink" x="0px" y="0px"
	 width="1024px" height="768px" viewBox="0 0 1024 768" enable-background="new 0 0 1024 768" xml:space="preserve">
<path d="M649.875,300.75c-0.307-0.352-0.466-0.768-0.647-1.228c-0.085-0.021-0.191-0.028-0.305-0.028
	c0.157-3.717-0.249-20.499-0.674-35.699V240.6c0.144-0.052,0.25-0.187,0.25-0.35v-6.609l-0.094-1.11
	c-0.016-0.193-0.21-0.423-0.386-0.537c-0.594-0.231-1.005,0.037-1.138,0.517c-0.085,0.458-0.192,0.944-0.192,0.944l-0.812,6.75
	c-0.025,0.206,0.122,0.393,0.327,0.417c0.016,0.001,0.03,0.002,0.045,0.002c0.115,0,0.207-0.064,0.276-0.148
	c-0.135,2.425-0.128,6.934-0.038,12.426l-0.363,48.347c-0.001,0.069,0.055,0.126,0.124,0.126h0.001c0.014,0,0.022-0.01,0.035-0.014
	c0.028,0.062,0.061,0.124,0.108,0.186c0.612,0.796,2.721,0.422,3.353-0.05c0.835-0.625,0.197-0.957,0.004-1.622L649.875,300.75z
	 M646.833,240.309c0.022,0.137,0.113,0.247,0.241,0.292l0.065,28.706c-0.173-5.718-0.32-11.431-0.401-16.356L646.833,240.309z
	 M646.38,300.595l0.294-39.053c0.134,5.277,0.308,10.877,0.485,16.13l0.051,22.275C646.857,300.126,646.558,300.346,646.38,300.595z
	 M647.459,299.832l-0.033-14.545c0.261,7.166,0.487,12.734,0.555,14.358C647.806,299.696,647.63,299.76,647.459,299.832z
	 M648,293.886c-0.161-4.121-0.378-9.905-0.591-16.198l-0.083-36.625c0.146,4.742,0.414,13.485,0.674,22.828V293.886z M648,255.07
	c-0.183-6.237-0.348-11.576-0.446-14.732c0.007-0.029,0.018-0.056,0.018-0.087v-6.925c-0.056-0.294,0.179-0.497,0.179-0.112v7.037
	c0,0.163,0.105,0.298,0.25,0.35v14.469H648z M648.674,299.507c-0.141,0.015-0.29,0.039-0.446,0.075
	c-0.006-0.14-0.013-0.299-0.021-0.491c0.025-0.023,0.043-0.054,0.043-0.091v-25.826C648.565,285.366,648.8,296.652,648.674,299.507z
	"/>
</svg>
