<?xml version="1.0" encoding="utf-8"?>
<!-- Generator: Adobe Illustrator 17.0.0, SVG Export Plug-In . SVG Version: 6.00 Build 0)  -->
<!DOCTYPE svg PUBLIC "-//W3C//DTD SVG 1.1//EN" "http://www.w3.org/Graphics/SVG/1.1/DTD/svg11.dtd">
<svg version="1.1" xmlns="http://www.w3.org/2000/svg" xmlns:xlink="http://www.w3.org/1999/xlink" x="0px" y="0px"
	 width="1024px" height="768px" viewBox="0 0 1024 768" enable-background="new 0 0 1024 768" xml:space="preserve">
<path d="M654.344,220.156c-0.101-0.106-0.208-0.19-0.318-0.266l0.459-54.134l-0.503,0.284l-0.454,53.603
	c-1.189-0.395-2.701,0.225-3.881-0.415c-0.154-1.684,0.632-4.128-0.424-5.575c-0.012-0.016-0.03-0.026-0.043-0.042l1.112-47.361
	l-0.499-0.063l-1.104,46.987c-1.197-0.764-3.249-0.454-3.871,0.761l-1.219-49.06h-0.501l1.335,53.712
	c-0.125,0.326-0.408,0.527-1.059,0.565c-0.696,0.041-1.667-0.156-2.475-0.024l-2.056-53.916l-0.513-0.298l2.073,54.356
	c-0.186,0.08-0.361,0.179-0.504,0.332c-0.678,0.726-0.501,2.745-0.401,3.648c0.12,1.083,0.376,1.301,1.219,2.03
	c0.876,0.758,1.799,1.431,2.754,2.083c1.098,0.75,1.737,0.723,3.009,1.03c0.116,1.27-2.036,0.756-1.731,2.731
	c0.142,0.918,0.971,2.103,1.94,2.33l0,0c0.998,0.155,1.81-0.965,1.81-0.965c0.441-0.584,0.663-1.285,0.225-1.714
	c-0.583-0.572-1.747,2.034-2.739,0.225c1.036-0.754,0.907-1.087,1.39-2.124c1.099-2.364,5.335-2.137,7.027-4.099
	C655.194,223.861,655.196,221.05,654.344,220.156z"/>
</svg>
