<svg class="material" version="1.1" xmlns="http://www.w3.org/2000/svg" xmlns:xlink="http://www.w3.org/1999/xlink" x="0px" y="0px"
  width="1024px" height="768px" viewBox="0 0 1024 768" enable-background="new 0 0 1024 768" xml:space="preserve">
  <path fill-opacity="null" stroke-width="0.4" stroke-linejoin="null" stroke-linecap="null" stroke-opacity="null" d="m648.984268,232.200277l23.640917,19.5284" id="svg_6"/>
  <path  fill-opacity="null" stroke-width="0.4" stroke-linejoin="null" stroke-linecap="null" stroke-opacity="null" d="m648.586944,232.497402l32.580756,19.5284" id="svg_4"/>
  <path  fill-opacity="null" stroke-width="0.4" stroke-linejoin="null" stroke-linecap="null" stroke-opacity="null" d="m648.586944,232.93624l-31.586942,19.089562" id="svg_7"/>
  <path  fill-opacity="null" stroke-width="0.4" stroke-linejoin="null" stroke-linecap="null" stroke-opacity="null" d="m648.806102,232.716821l-24.137061,19.089562" id="svg_8"/>
  <path stroke="null" fill="null" fill-opacity="null" stroke-width="null" stroke-linejoin="null" stroke-linecap="null" stroke-opacity="null" d="m647.792297,233.254576c0,-0.727359 0.533432,-1.316526 1.191982,-1.316526c0.658551,0 1.191982,0.589167 1.191982,1.316526c0,0.727359 -0.533432,1.316526 -1.191982,1.316526c-0.658551,0 -1.191982,-0.589167 -1.191982,-1.316526z" id="svg_13"/>
  <path stroke="null" fill="null" fill-opacity="null" stroke-width="null" stroke-linejoin="null" stroke-linecap="null" stroke-opacity="null" d="m648.586955,232.607105c0,-0.181843 0.044449,-0.329135 0.099337,-0.329135c0.054876,0 0.099337,0.147292 0.099337,0.329135c0,0.181843 -0.044449,0.329135 -0.099337,0.329135c-0.054876,0 -0.099337,-0.147292 -0.099337,-0.329135z" id="svg_14"/>
  <path   fill-opacity="null" stroke-width="0.4" stroke-linejoin="null" stroke-linecap="null" stroke-opacity="null" d="m617.198193,252.025815l63.969496,0l0,21.283765l-63.969496,0l0,-21.283765z" id="svg_16"/>
</svg>