<?xml version="1.0" encoding="utf-8"?>
<!-- Generator: Adobe Illustrator 17.0.0, SVG Export Plug-In . SVG Version: 6.00 Build 0)  -->
<!DOCTYPE svg PUBLIC "-//W3C//DTD SVG 1.1//EN" "http://www.w3.org/Graphics/SVG/1.1/DTD/svg11.dtd">
<svg version="1.1" id="Layer_3" xmlns="http://www.w3.org/2000/svg" xmlns:xlink="http://www.w3.org/1999/xlink" x="0px" y="0px"
	 width="1024px" height="768px" viewBox="0 0 1024 768" enable-background="new 0 0 1024 768" xml:space="preserve">
<g>
	<g>
		<path d="M534.909,160.099c28.702,0,43.465-1.654,43.465-1.654c-0.138-0.018-0.156-0.18-0.156-0.18
			c-1.396-0.157-3.203-0.172-3.203-0.172l-0.027,0.149c-97.739,8.285-388.985-23.567-483.945-34.487c0,0-1.731-0.064-4.574-0.018
			c39.542,4.58,119.597,13.558,204.656,21.396C372.05,152.589,469.736,160.099,534.909,160.099z"/>
		<path d="M624.001,161.047l-0.085,0.127c-24.656,4.189-96.21,6.992-153.916,6.992c-71.776,0-163.095-6.108-264.086-17.665
			c-84.181-9.632-146.565-25.456-169.385-31.781l-0.045-0.143l-2.627-0.244l-0.1,0.131c20.869,5.871,85.103,22.578,172.1,32.534
			C306.866,162.557,398.205,168.667,470,168.667c59.337,0,133.333-2.97,156.007-7.367l0.058-0.102L624.001,161.047z"/>
	</g>
	<path display="none" d="M649.875,300.75c-0.307-0.352-0.466-0.768-0.647-1.228c-0.085-0.021-0.191-0.028-0.305-0.028
		c0.157-3.717-0.249-20.499-0.674-35.699V240.6c0.144-0.052,0.25-0.187,0.25-0.35v-6.609l-0.094-1.11
		c-0.016-0.193-0.21-0.423-0.386-0.537c-0.594-0.231-1.005,0.037-1.138,0.517c-0.085,0.458-0.192,0.944-0.192,0.944l-0.812,6.75
		c-0.025,0.206,0.122,0.393,0.327,0.417c0.016,0.001,0.03,0.002,0.045,0.002c0.115,0,0.207-0.064,0.276-0.148
		c-0.135,2.425-0.128,6.934-0.038,12.426l-0.363,48.347c-0.001,0.069,0.055,0.126,0.124,0.126h0.001c0.014,0,0.022-0.01,0.035-0.014
		c0.028,0.062,0.061,0.124,0.108,0.186c0.612,0.796,2.721,0.422,3.353-0.05c0.835-0.625,0.197-0.957,0.004-1.622L649.875,300.75z
		 M646.833,240.309c0.022,0.137,0.113,0.247,0.241,0.292l0.065,28.706c-0.173-5.718-0.32-11.431-0.401-16.356L646.833,240.309z
		 M646.38,300.595l0.294-39.053c0.134,5.277,0.308,10.877,0.485,16.13l0.051,22.275C646.857,300.126,646.558,300.346,646.38,300.595
		z M647.459,299.832l-0.033-14.545c0.261,7.166,0.487,12.734,0.555,14.358C647.806,299.696,647.63,299.76,647.459,299.832z
		 M648,293.886c-0.161-4.121-0.378-9.905-0.591-16.198l-0.083-36.625c0.146,4.742,0.414,13.485,0.674,22.828V293.886z M648,255.07
		c-0.183-6.237-0.348-11.576-0.446-14.732c0.007-0.029,0.018-0.056,0.018-0.087v-6.925c-0.056-0.294,0.179-0.497,0.179-0.112v7.037
		c0,0.163,0.105,0.298,0.25,0.35v14.469H648z M648.674,299.507c-0.141,0.015-0.29,0.039-0.446,0.075
		c-0.006-0.14-0.013-0.299-0.021-0.491c0.025-0.023,0.043-0.054,0.043-0.091v-25.826C648.565,285.366,648.8,296.652,648.674,299.507
		z"/>
	<path display="none" d="M654.344,220.156c-0.101-0.106-0.208-0.19-0.318-0.266l0.459-54.134l-0.503,0.284l-0.454,53.603
		c-1.189-0.395-2.701,0.225-3.881-0.415c-0.154-1.684,0.632-4.128-0.424-5.575c-0.012-0.016-0.03-0.026-0.043-0.042l1.112-47.361
		l-0.499-0.063l-1.104,46.987c-1.197-0.764-3.249-0.454-3.871,0.761l-1.219-49.06h-0.501l1.335,53.712
		c-0.125,0.326-0.408,0.527-1.059,0.565c-0.696,0.041-1.667-0.156-2.475-0.024l-2.056-53.916l-0.513-0.298l2.073,54.356
		c-0.186,0.08-0.361,0.179-0.504,0.332c-0.678,0.726-0.501,2.745-0.401,3.648c0.12,1.083,0.376,1.301,1.219,2.03
		c0.876,0.758,1.799,1.431,2.754,2.083c1.098,0.75,1.737,0.723,3.009,1.03c0.116,1.27-2.036,0.756-1.731,2.731
		c0.142,0.918,0.971,2.103,1.94,2.33l0,0c0.998,0.155,1.81-0.965,1.81-0.965c0.441-0.584,0.663-1.285,0.225-1.714
		c-0.583-0.572-1.747,2.034-2.739,0.225c1.036-0.754,0.907-1.087,1.39-2.124c1.099-2.364,5.335-2.137,7.027-4.099
		C655.194,223.861,655.196,221.05,654.344,220.156z"/>
	<g display="none">
		<path display="inline" d="M657.454,153.64l-0.318-0.024l-0.886-1.164v-2.283l1.716-1.128l-1.716-0.192v-4.018l0.95-1.32
			l2.159,0.124c-0.088-0.339-0.177-0.678-0.264-1.017l-39.222-2.25c-0.133-1.464-3.566-1.801-4.873-1.742
			c-0.893,0.039-1.905,0.352-2.746,0.753c-0.348,0.166-0.594,0.322-0.781,0.472l-0.222,0.988c0.615,0.635,2.648,0.992,3.621,1.039
			c0.069,0.003,0.149,0.009,0.229,0.014l-2.205,13.069l-0.7,4.509l0.322,1.021l6.169,0.37l0.085-0.997l-4.46-0.267l0.084-0.063
			l4.403-2.604l2.818,0.174l-0.025-1.003l-0.36-0.023l-1.202-0.161l1.521-1.502l-0.017-0.684l-2.122,2.104l-0.493-0.066l2.659-4.902
			l0.061-1.159l-3.25,5.99l-0.011-0.001l0.216-1.341l3.058-4.894l0.048-0.569l1.119-0.312l3.704-6.828l0.765,0.044l2.061,5.889
			l-0.224,0.012l0.745-0.038l-1.746-4.987l3.778,4.882l1.196,1.546l4.401,5.688l0.237-0.509l-9.622-12.435l18.794,1.078
			l-7.766,11.519l0.56,0.065l6.087-9.03l-0.201,3.046l-0.629,0.215l-3.733,5.945l0.551,0.064l3.513-5.592l0.263-0.09l-0.348,5.261
			l-0.705,0.455v2.536l0.5-0.211v-2.052l0.164-0.106l-0.142,2.149l0.515-0.217l0.143-2.15l2.813,0.136l-0.244,2.208l0.498,0.036
			l0.245-2.22l3.793,0.183l0.537,1.505l0.375-0.436l-0.372-1.043l1.171,0.057l0.123-0.16l3.755,0.248l-0.797-1.047L657.454,153.64z
			 M656.25,143.456l0.357,0.021l-0.357,0.497V143.456z M613.938,151.789l2.415,3.636l-2.961-0.397L613.938,151.789z
			 M613.545,159.551l-0.814-0.049l-0.062-0.194l0.424-2.51l1.381-0.137l2.671,0.165L613.545,159.551z M617.012,155.512l-2.951-4.443
			l1.437-8.51l2.415,11.943l-0.652,1.043L617.012,155.512z M617.804,155.619l0.252-0.404l0.091,0.45L617.804,155.619z
			 M618.222,153.516l-2.339-11.571c1.254,0.077,2.935,0.101,3.649-0.595l0.643,0.037L618.222,153.516z M618.799,153.082
			l1.733-10.769l1.211,6.055L618.799,153.082z M622.13,147.75l-1.265-6.323l5.034,0.289L622.13,147.75z M650.292,143.114l4.708,0.27
			v0.247h-4.765L650.292,143.114z M650.066,145.155l2.498,3.281l-1.682-0.188l-0.884-2.479L650.066,145.155z M652.128,153.229
			l-2.929-0.226l0.485-4.386l0.832,0.093L652.128,153.229z M650.33,148.187l-0.591-0.066l0.134-1.214L650.33,148.187z
			 M649.793,143.086l-0.06,0.545h-0.198l-0.446-0.585L649.793,143.086z M647.774,142.97l0.709,0.041l0.222,0.62h-0.931
			L647.774,142.97L647.774,142.97z M646.346,144.651l0.929-1.378v0.608h0.25v0.25h1.358l0.607,1.701l-0.247,2.234l-1.747-0.195
			l-1.395,0.477L646.346,144.651z M648.547,154.365l-2.311-0.111l1.353-0.873l1.058,0.082L648.547,154.365z M648.702,152.965
			l-1.158-0.089l-0.084-0.007l-1.732,1.117l0.337-5.099l1.487-0.508l1.636,0.183L648.702,152.965z M649.047,154.39l0.098-0.889
			l3.167,0.244l0.292,0.816L649.047,154.39z M655.75,155.005l-1-0.09l0.012-0.25l-1.619-0.078l-0.285-0.8l2.893,0.223v0.995H655.75z
			 M655.75,153.509l-3.076-0.237l-1.604-4.499l1.914,0.213l2.767,3.635v0.888H655.75z M655.75,149.899l-0.013,0.008l0.013,0.02
			v1.869l-2.08-2.732l2.08,0.232V149.899z M655.75,148.793l-2.498-0.279l-3.106-4.08l0.033-0.303h5.07v-0.25h0.25v-0.468l0.25,0.015
			L655.75,148.793L655.75,148.793z M656.25,155.05v-1.002l0.623,0.048l0.239,0.314l0.16,0.732L656.25,155.05z"/>
	</g>
	<path display="none" d="M661.25,155.5l-6.632-0.507l-0.533,0.694l-1.461,1.697l-4.377-0.313l-2.711-0.194l-1.037,0.437l-1.51-0.078
		l0.26-0.486v-1.835l-5.513-0.638l-0.237,0.509v1.363H632L631.75,151l1.875-0.931l-1.723-2.517l-2.777,0.143l-1-1.57l-3.375,2.819
		L624,148.25l-2.301,0.641l-0.048,0.569l-0.013,0.247l-0.061,1.159l-0.078,1.509l0.034,1.355l0.017,0.684l0.042,1.686l0.025,1.003
		l0.007,0.28l-1.744,1.234l-1.108,1.246l-0.085,0.997l12.838,0.769l0.1,0.995l1.25,0.125l0.25,3.625l1.5,0.25l0.75-1l2.957-0.71
		l0.513,0.298c2.117,1.904,4.03-0.338,4.03-0.338h0.224h0.501h6.15l0.069,0.191l-0.026,1.12l0.499,0.063h0.833v1.889l1.375-0.014
		v-1.25l4.875-2.75l2.75-0.25L661.25,155.5z M642.468,158.21l2.032,0.106v1.011l-2.25-0.709L642.468,158.21z M649.625,163h-6.875
		v-0.789l7.114,0.335L649.625,163z"/>
</g>
</svg>
