<?xml version="1.0" encoding="utf-8"?>
<!-- Generator: Adobe Illustrator 17.0.0, SVG Export Plug-In . SVG Version: 6.00 Build 0)  -->
<!DOCTYPE svg PUBLIC "-//W3C//DTD SVG 1.1//EN" "http://www.w3.org/Graphics/SVG/1.1/DTD/svg11.dtd">
<svg version="1.1" id="Layer_3" xmlns="http://www.w3.org/2000/svg" xmlns:xlink="http://www.w3.org/1999/xlink" x="0px" y="0px"
	 width="1024px" height="768px" viewBox="0 0 1024 768" enable-background="new 0 0 1024 768" xml:space="preserve">
<path d="M661.25,155.5l-6.632-0.507l-0.533,0.694l-1.461,1.697l-4.377-0.313l-2.711-0.194l-1.037,0.437l-1.51-0.078l0.26-0.486
	v-1.835l-5.513-0.638l-0.237,0.509v1.363H632L631.75,151l1.875-0.931l-1.723-2.517l-2.777,0.143l-1-1.57l-3.375,2.819L624,148.25
	l-2.301,0.641l-0.048,0.569l-0.013,0.247l-0.061,1.159l-0.078,1.509l0.034,1.355l0.017,0.684l0.042,1.686l0.025,1.003l0.007,0.28
	l-1.744,1.234l-1.108,1.246l-0.085,0.997l12.838,0.769l0.1,0.995l1.25,0.125l0.25,3.625l1.5,0.25l0.75-1l2.957-0.71l0.513,0.298
	c2.117,1.904,4.03-0.338,4.03-0.338h0.224h0.501h6.15l0.069,0.191l-0.026,1.12l0.499,0.063h0.833v1.889l1.375-0.014v-1.25
	l4.875-2.75l2.75-0.25L661.25,155.5z M642.468,158.21l2.032,0.106v1.011l-2.25-0.709L642.468,158.21z M649.625,163h-6.875v-0.789
	l7.114,0.335L649.625,163z"/>
</svg>
